<?xml version="1.0" standalone="no"?>
<!DOCTYPE svg PUBLIC "-//W3C//DTD SVG 20010904//EN"
 "http://www.w3.org/TR/2001/REC-SVG-20010904/DTD/svg10.dtd">
<svg version="1.0" xmlns="http://www.w3.org/2000/svg"
 width="1356.000000pt" height="1356.000000pt" viewBox="0 0 1356.000000 1356.000000"
 preserveAspectRatio="xMidYMid meet">
<metadata>
Created by potrace 1.11, written by Peter Selinger 2001-2013
</metadata>
<g transform="translate(0.000000,1356.000000) scale(0.100000,-0.100000)"
fill="#000000" stroke="none">
<path d="M569 12873 c-274 -283 -455 -644 -541 -1078 l-22 -110 -4 -4840 c-2
-3496 0 -4871 8 -4950 50 -494 260 -937 610 -1285 312 -311 691 -504 1154
-587 84 -16 487 -17 4916 -20 3402 -3 4859 -1 4940 7 63 6 169 22 235 35 364
74 737 268 1008 524 l58 55 -3068 3069 c-2412 2413 -3062 3068 -3038 3063 39
-7 2938 -552 2987 -561 l38 -7 2 -380 3 -380 838 670 837 670 -835 691 c-459
380 -837 691 -840 691 -3 0 -5 -161 -5 -357 l0 -358 -1517 -332 c-834 -183
-1518 -331 -1520 -330 -3 4 4374 2996 4392 3003 6 3 224 -204 485 -459 273
-267 476 -458 478 -450 2 7 95 830 206 1828 l202 1815 -25 0 c-37 0 -3641
-340 -3670 -346 -22 -5 22 -52 410 -440 l434 -434 -16 -28 c-17 -30 -2909
-4484 -2916 -4492 -2 -2 -1391 1383 -3086 3078 l-3082 3082 -56 -57z m3166
-5521 c6 -5 691 -136 1522 -293 832 -156 1509 -286 1505 -290 -4 -3 -671 -151
-1482 -328 -811 -178 -1492 -327 -1512 -332 l-38 -10 -2 -359 -3 -360 -835
691 c-459 380 -837 692 -839 694 -2 2 372 303 830 669 l834 666 5 -370 c3
-225 9 -373 15 -378z"/>
</g>
</svg>
